<svg width="11" height="11" viewBox="0 0 11 11" fill="none" xmlns="http://www.w3.org/2000/svg">
<path d="M1.90497 10.1372V7.84878M1.90497 3.27186V0.983398M0.760742 2.12763H3.0492M0.760742 8.99301H3.0492M5.79536 1.44109L5.00164 3.50476C4.87256 3.84036 4.80803 4.00815 4.70767 4.1493C4.61872 4.27439 4.50942 4.38368 4.38433 4.47263C4.24319 4.57299 4.07539 4.63753 3.7398 4.7666L1.67613 5.56032L3.7398 6.35404C4.07539 6.48312 4.24319 6.54765 4.38433 6.64801C4.50942 6.73696 4.61872 6.84625 4.70767 6.97135C4.80803 7.11249 4.87256 7.28029 5.00164 7.61588L5.79536 9.67955L6.58908 7.61588C6.71815 7.28029 6.78269 7.11249 6.88305 6.97135C6.972 6.84626 7.08129 6.73696 7.20638 6.64801C7.34753 6.54765 7.51532 6.48312 7.85092 6.35404L9.91459 5.56032L7.85092 4.7666C7.51532 4.63753 7.34753 4.57299 7.20638 4.47263C7.08129 4.38368 6.972 4.27439 6.88305 4.1493C6.78269 4.00815 6.71815 3.84036 6.58908 3.50476L5.79536 1.44109Z" stroke="#591FD3" stroke-width="0.915385" stroke-linecap="round" stroke-linejoin="round"/>
</svg>
